<?xml version="1.0" encoding="utf-8" ?>
<svg xmlns="http://www.w3.org/2000/svg" xmlns:xlink="http://www.w3.org/1999/xlink" width="454" height="175">
	<path fill="#259D25" d="M407.154 57.9626C408.032 58.01 409.205 57.7899 409.939 58.2296C410.537 59.8197 411.209 63.0208 410.536 64.633C409.716 64.7105 408.917 64.8223 408.106 64.9596C396.717 65.4357 389.044 69.8521 378.624 73.3238C373.462 75.0437 367.573 76.1521 362.16 76.7798C362.117 76.7708 362.073 76.7633 362.03 76.7527C361.655 76.6604 355.377 71.4603 355.097 70.9635C360.247 69.4522 364.988 67.0961 370.04 65.363C381.392 61.469 395.215 58.7507 407.154 57.9626Z"/>
	<path fill="#259D25" d="M338.985 32.5407C339.117 32.5395 346.987 34.4454 347.148 34.5226C347.272 34.5818 347.434 34.7633 347.545 34.8561C347.542 35.1563 347.565 35.4846 347.496 35.7765C347.261 36.1991 331.377 48.5253 329.117 50.3731C324.029 54.5337 319.512 59.0986 314.872 63.7381C309.661 68.9489 304.597 74.0209 299.947 79.7554C297.362 82.9422 294.627 85.9947 292.08 89.2142C289.193 92.8634 286.495 96.6731 283.515 100.247C283.185 100.642 282.914 100.978 282.441 101.21C282.362 101.178 282.339 101.172 282.27 101.135C281.285 100.615 277.539 96.0618 277.218 95.0076C280.703 92.4882 283.169 87.8441 285.935 84.5621C287.811 82.3376 289.959 80.334 291.909 78.1734C294.39 75.4246 296.687 72.5723 299.289 69.926C301.895 67.2768 304.87 65.1997 307.572 62.6844C311.266 59.2463 314.666 55.4894 318.363 52.0519C320.587 49.9842 323.013 48.1399 325.218 46.0521C327.821 43.5867 330.21 40.8809 332.848 38.4542C334.478 36.9544 336.339 35.6818 337.917 34.1294C338.385 33.6693 338.832 33.1983 338.985 32.5407Z"/>
	<path fill="#157A16" d="M393.437 14.8746C394.025 14.7675 394.475 14.8105 395.043 14.9986C398.586 16.1713 403.063 18.5573 404.774 22.0027C406.043 24.5568 406.415 27.2795 405.48 30.0048C404.362 33.2597 402.04 36.6385 399.64 39.0652C392.975 45.8039 380.633 52.3726 372.076 56.5428C371.71 57.3796 369.399 59.0424 368.549 59.5163C367.615 60.0364 366.016 60.6867 364.965 60.3408C364.377 60.1476 364.275 59.9085 364.014 59.3904C364.014 59.1815 364.022 58.9775 364.055 58.7709C364.191 57.9399 364.782 57.0538 365.284 56.3894C366.87 54.2925 368.847 52.4518 370.601 50.4937C373.492 47.2666 376.301 43.8402 378.867 40.3493C384.761 32.3344 389.172 23.8285 393.437 14.8746Z"/>
	<path fill="#157A16" d="M154.722 32.8374C155.263 32.8256 155.802 32.8705 156.34 32.9171C158.378 33.0932 161.015 33.296 162.399 35.0179C163.269 36.0997 163.405 37.6047 163.266 38.9391C162.353 47.7152 148.516 60.2175 143.085 67.0404C141.853 68.5884 140.843 70.3922 139.825 72.0858C137.313 76.262 132.53 87.6921 129.383 90.2431C128.7 90.3361 128.545 90.2753 127.918 89.9941C127.508 89.5372 127.208 89.0898 127.009 88.5056C124.193 80.2321 129.037 64.9209 132.922 57.2281C128.38 56.0061 123.976 54.3679 119.33 53.5243C114.444 52.6371 109.714 52.5625 104.784 52.9804C101.952 53.2205 99.1602 53.4683 96.3833 54.1058C84.4971 56.8345 73.6433 64.046 62.8619 69.4737C62.1251 69.8446 61.1706 70.3462 60.3347 70.0706L60.3367 69.6029C61.5384 67.2837 63.7194 64.5499 65.7115 62.8521C61.6391 63.195 58.386 64.4202 54.8668 66.436C43.9194 72.7065 31.7219 85.0536 28.4151 97.5785C27.7365 100.149 28.9706 101.805 30.187 103.923C29.0322 106.151 27.3806 108.158 26.4477 110.496C25.1545 113.739 27.0203 117.933 28.3337 120.946C31.7501 128.781 37.324 135.119 45.3977 138.27C50.7006 140.34 56.7683 141.588 62.46 141.646C80.7868 141.834 103.212 132.04 119.842 124.742C125.523 122.464 134.755 115.999 140.059 115.251C140.528 115.185 140.573 115.207 140.951 115.483L140.875 116.081C139.614 117.904 137.387 119.319 135.777 120.884C120 136.218 99.1995 146.781 78.4228 153.552C65.4108 157.792 49.6543 159.188 37.0938 152.783Q36.1819 152.308 35.2943 151.79Q34.4067 151.271 33.5455 150.71Q32.6842 150.149 31.8514 149.546Q31.0186 148.944 30.2161 148.301Q29.4137 147.659 28.6436 146.978Q27.8734 146.297 27.1375 145.579Q26.4015 144.862 25.7014 144.109Q25.0013 143.356 24.3388 142.57Q23.6763 141.784 23.0529 140.967Q22.4295 140.15 21.8468 139.303Q21.264 138.456 20.7233 137.582Q20.1826 136.708 19.6851 135.808Q19.1877 134.908 18.7348 133.986Q18.2819 133.063 17.8745 132.119Q17.4671 131.175 17.1063 130.213Q16.7455 129.25 16.4321 128.271C12.0122 114.651 13.993 101.523 20.4392 88.8896C31.8502 66.5263 54.3726 47.6717 78.236 39.9365C86.662 37.2053 97.6826 35.06 106.529 34.9503C113.023 34.8698 122.572 36.2644 128.709 38.3227C133.612 39.9671 138.174 42.4493 142.766 44.7938C142.997 43.8702 143.42 43.1086 143.926 42.3111C146.283 38.5988 150.31 33.8188 154.722 32.8374Z"/>
	<path fill="#157A16" d="M178.171 135.052L178.262 135.012C185.158 131.893 201.972 108.872 208.204 102.133C214.995 94.7904 222.387 87.8199 229.552 80.8318C234.36 76.1421 240.012 72.0555 245.28 67.8939C248.251 65.5464 251.21 63.3192 253.731 60.4706Q255.198 58.8208 256.438 56.9937Q257.677 55.1666 258.668 53.1934C261.278 48.064 262.943 41.1349 267.794 37.5982C270.885 35.3448 277.768 35.3072 281.24 36.5712Q281.646 36.721 282.036 36.9103Q282.426 37.0996 282.795 37.3266Q283.164 37.5536 283.508 37.8159Q283.853 38.0783 284.17 38.3736Q284.487 38.6688 284.773 38.994Q285.06 39.3192 285.312 39.6711Q285.565 40.023 285.781 40.3982Q285.998 40.7734 286.176 41.1682C288.648 46.5793 286.642 54.3866 284.65 59.6408C280.922 69.4739 275.928 78.9943 271.341 88.4504C268.439 94.4337 265.715 101.071 262.118 106.657C261.557 107.527 260.951 108.183 260.123 108.807C264.706 107.364 274.82 99.6247 277.071 95.3221Q277.153 95.1686 277.218 95.0076C277.539 96.0618 281.285 100.615 282.27 101.135C282.339 101.172 282.362 101.178 282.441 101.21C282.153 104.094 266.721 126.219 264.534 129.243C262.83 131.6 260.995 133.896 259.137 136.135C256.431 139.396 253.419 142.53 250.135 145.215C245.402 149.083 239.058 152.785 232.76 152.16C230.204 151.907 227.234 151.092 225.532 149.027C223.649 146.743 223.754 143.49 224.046 140.713C224.317 138.139 225.084 135.65 226.043 133.255C227.013 130.831 231.234 123.46 231.14 121.47C231.249 121.345 231.355 121.216 231.448 121.078C232.534 119.469 233.218 117.112 233.913 115.295C235.71 110.594 237.357 105.862 239.047 101.125C241.176 95.1617 243.559 89.1329 246.113 83.335C247.004 81.3128 252.298 72.8408 252.416 71.9302C252.433 71.7995 252.435 71.6709 252.432 71.5395C253.027 70.8496 253.751 69.4067 253.686 68.4701C253.677 68.3409 253.673 68.332 253.653 68.2193C253.048 67.9021 252.25 68.1099 251.628 68.3053C246.254 69.9928 239.534 77.0274 235.487 81.0742C227.508 89.0541 219.715 96.7122 212.563 105.473C201.018 119.615 181.298 150.214 163.394 155.618C160.391 156.524 157.098 156.438 154.047 155.819C152.224 153.899 150.913 152.032 150.998 149.282C151.245 141.315 157.854 133.635 161.961 127.231C164.287 123.604 166.517 119.828 168.648 116.083Q173.38 107.902 177.692 99.4921Q182.003 91.0819 185.881 82.4637Q189.76 73.8455 193.197 65.0415Q196.633 56.2375 199.618 47.2705C200.166 45.5883 203.016 39.1633 202.752 37.8426C210.038 39.4837 218.878 42.2577 223.065 48.9253C225.307 52.4961 225.423 55.4158 224.485 59.4342C222.181 69.3144 215.52 82.8927 209.951 91.4149C209.052 92.791 207.865 95.0349 206.421 95.8887C206.056 96.1044 205.512 96.2209 205.103 96.1077C203.723 95.7256 203.207 94.2859 202.022 93.7143C201.235 95.8875 195.984 100.838 194.277 103.714C191.743 107.981 189.27 112.621 187.073 117.078C185.093 121.097 180.74 132.606 178.171 135.052ZM258.24 76.5155C258.332 77.6255 253.819 85.7041 253.148 87.555C248.514 100.338 245.398 114.054 238.684 125.961C239.094 127.03 240.226 128.966 239.929 130.063Q242.012 129.104 243.732 127.588C244.785 126.665 245.721 125.619 246.422 124.402C247.343 122.803 247.956 121.006 248.738 119.335C251.502 113.432 253.999 107.493 256.418 101.443C258.177 97.045 260.21 92.6846 261.682 88.1842C262.78 84.8263 263.887 81.0375 264.124 77.5025C264.214 76.1635 264.563 72.9179 263.659 71.8886C261.726 71.6835 259.859 75.4916 258.355 76.445C258.317 76.4691 258.278 76.492 258.24 76.5155ZM200.215 74.1217C198.054 77.9215 194.668 81.1274 192.088 84.6625C189.023 88.8634 178.771 105.441 179.265 110.533L179.533 110.95C179.97 110.964 180.002 111.002 180.33 110.722C184.209 108.509 192.691 97.0179 195.162 92.9993C197.59 89.05 200.221 84.3839 201.438 79.8894C201.694 78.945 202.178 77.2669 201.652 76.37C201.637 76.3456 201.621 76.3226 201.605 76.2989C201.623 75.6641 201.491 74.9307 201.004 74.4717C200.764 74.2459 200.542 74.1401 200.215 74.1217Z"/>
	<path fill="#259D25" d="M252.432 71.5395C253.896 71.4996 255.429 72.969 256.446 73.92C257.122 74.552 257.794 75.2571 258.26 76.0598L258.24 76.5155C258.332 77.6255 253.819 85.7041 253.148 87.555C248.514 100.338 245.398 114.054 238.684 125.961L238.551 126.311L237.968 126.292C236.452 125.459 232.03 122.762 231.14 121.47C231.249 121.345 231.355 121.216 231.448 121.078C232.534 119.469 233.218 117.112 233.913 115.295C235.71 110.594 237.357 105.862 239.047 101.125C241.176 95.1617 243.559 89.1329 246.113 83.335C247.004 81.3128 252.298 72.8408 252.416 71.9302C252.433 71.7995 252.435 71.6709 252.432 71.5395Z"/>
	<path fill="#157A16" d="M338.985 32.5407C343.819 27.8639 353.632 18.7623 360.548 18.8878C361.896 18.9122 363.09 19.4574 364.021 20.426C364.789 21.2257 366.073 22.7246 366.046 23.8896C369.01 23.8598 372.349 23.5597 375.262 24.0672C376.425 24.5984 378.107 25.8341 378.557 27.0919C378.609 27.236 378.617 27.3924 378.615 27.544C379.447 28.9005 379.302 31.1564 378.951 32.6573C376.072 44.9835 356.183 58.9994 346.914 66.9148C343.928 69.4652 341.315 73.0928 337.997 75.1424C342.535 74.6937 350.311 72.1263 355.097 70.9635C355.377 71.4603 361.655 76.6604 362.03 76.7527C362.073 76.7633 362.117 76.7708 362.16 76.7798C367.573 76.1521 373.462 75.0437 378.624 73.3238C389.044 69.8521 396.717 65.4357 408.106 64.9596C408.917 64.8223 409.716 64.7105 410.536 64.633C411.209 63.0208 410.537 59.8197 409.939 58.2296C409.205 57.7899 408.032 58.01 407.154 57.9626Q407.241 57.9431 407.329 57.9259C414.328 56.6054 420.513 56.2703 426.676 60.4623C430.175 62.8423 433.131 66.3849 433.901 70.6477C435.69 80.5548 430.944 87.6602 425.536 95.3528C415.01 110.327 389.836 132.066 372.682 138.959C370.98 139.643 368.969 140.576 367.161 140.871C366.643 140.956 366.385 140.996 365.955 140.69C366.824 138.433 385.334 125.259 388.741 122.589C392.483 119.658 396.195 116.62 399.801 113.524C402.779 110.966 405.652 107.914 408.296 105.01C409.79 103.37 414.482 98.025 414.392 96.0495C413.437 97.7592 409.377 100.097 407.736 101.395C402.3 105.698 397.189 110.472 391.639 114.635C387.66 117.62 383.288 120.094 379.219 122.955C372.074 127.979 365.167 133.433 358.287 138.811C353.364 142.66 331.438 158.781 325.478 157.944C322.236 157.49 315.991 152.128 314.061 149.514C304.851 137.039 328.969 108.75 336.923 99.4636C338.809 97.2628 340.575 94.9259 342.528 92.7884C343.873 91.3166 349.743 86.5611 349.924 84.9888C349.929 84.9414 349.932 84.8937 349.936 84.8462C349.917 84.8662 349.899 84.8874 349.879 84.9064C348.183 86.5004 337.549 89.9785 334.795 90.5876C332.964 90.9928 331.065 91.2299 329.187 91.1556C326.846 91.063 324.648 90.4039 323.028 88.6382C320.606 85.9985 319.833 80.8495 320.016 77.4128C320.524 67.8959 327.218 61.0791 333.552 54.7997C335.924 52.448 338.248 50.0121 340.796 47.8486C343.93 45.1862 347.25 42.753 350.309 39.9994C352.806 37.7523 358.217 33.8306 358.398 30.3927C357.251 31.5115 349.189 35.3911 347.496 35.7765C347.565 35.4846 347.542 35.1563 347.545 34.8561C347.434 34.7633 347.272 34.5818 347.148 34.5226C346.987 34.4454 339.117 32.5395 338.985 32.5407ZM408.106 64.9596C396.717 65.4357 389.044 69.8521 378.624 73.3238C373.462 75.0437 367.573 76.1521 362.16 76.7798C361.761 77.4441 360.433 78.2926 359.82 78.864C357.179 81.3282 354.419 83.8458 352.441 86.8946C347.508 94.4974 345.171 103.738 339.035 110.556C337.813 111.913 336.47 113.188 334.984 114.254C332.128 116.305 327.058 118.344 325.342 121.452C325.443 122.032 325.509 122.066 325.937 122.426C328.034 122.889 330.8 121.46 332.758 120.752C333.319 120.991 333.88 121.24 334.366 121.613C335.425 122.425 335.818 123.346 335.995 124.635C336.521 128.476 336.26 142.075 334.093 144.911C338.242 144.08 341.753 141.594 345.413 139.626C352.05 136.057 358.616 132.487 364.936 128.354C370.992 124.393 378.304 119.154 383.812 114.498C385.909 112.726 387.79 110.698 389.839 108.87C392.017 106.928 394.392 105.155 396.429 103.062C398.217 101.225 399.74 99.1221 401.425 97.1898C403.142 95.2214 405.053 93.4259 406.739 91.4319C410.142 87.4088 413.202 83.1663 416.393 78.9833C417.436 77.6161 422.406 71.7238 422.694 70.3514C418.556 68.5908 414.727 67.6623 410.939 65.0568C410.118 64.8793 408.964 64.9854 408.106 64.9596Z"/>
</svg>




